<?xml version="1.0" encoding="UTF-8"?>
<svg id="Logo" xmlns="http://www.w3.org/2000/svg" viewBox="0 0 578.82 496.94">
  <defs>
    <style>
      .cls-1 {
        fill: none;
        stroke: #fff;
        stroke-miterlimit: 10;
        stroke-width: 10px;
      }
    </style>
  </defs>
  <path id="_3" data-name="3" class="cls-1" d="m441.26,404.4h0s-306.51-1.05-306.51-1.05c-.38,0-.74.2-.93.53l-25.61,44.02c-.35.61-.04,1.34.57,1.55l465.03.1c2.51.99-251.21-426.85-261.27-443.77-.19-.32-.53-.52-.91-.52-5.62-.02-49.29-.26-49.29-.26"/>
  <path id="_2" data-name="2" class="cls-1" d="m260.62,83.94l30.99,54.01,149.65,266.45h0s52.23-.24,52.23-.24L262.64,5.17c-.13-.23-.47-.23-.61,0L5.04,449.06c-.05.09-.05.19,0,.28,0,0,22.25,38.67,24.24,42.11.06.11.22.11.28,0,6.34-11.21,231.2-408.42,231.07-407.52Z"/>
  <path id="_1" data-name="1" class="cls-1" d="m291.61,137.95L107.04,449l465.6.55c.52,0,.84.56.58,1.01l-24.09,41.24c-.06.08-.15.13-.25.13l-519.19-.4c-.11,0-.19-.12-.13-.22L260.62,83.94l30.99,54.01Z"/>
</svg>